<svg xmlns="http://www.w3.org/2000/svg" xmlns:xlink="http://www.w3.org/1999/xlink" width="75" height="74" viewBox="0 0 75 74"><defs><path id="vkn0a" d="M1015.46 50.06v26.61c0 .7-.03 1.46-.09 2.32-.03.52-.1 1.04-.18 1.53 0 .07-.02.14-.03.2-.06.48-.13.86-.21 1.22l-.31 1.25a150.64 150.64 0 0 0-.1.4l-.3 1.05c-.1.3-.2.58-.32.85l-.07.18c-.14.39-.28.73-.43 1.08l-.09.2c-.14.35-.3.71-.48 1.06-.34.65-.7 1.3-1.08 1.92-.48.8-.98 1.54-1.51 2.2a22.68 22.68 0 0 1-3.21 3.44 24.14 24.14 0 0 1-4.07 2.9l-1.5.86-.67.4-.78.44-1.27.73-.79.46-.83.48-1.02.59-1.2.7-1.08.62-.94.55-.84.48-.8.46-1.26.73-1.68.98-1.15.66-1.17.67a143.26 143.26 0 0 0-2.07 1.2 181.2 181.2 0 0 1-3.78 2.05c-.38.18-.77.33-1.14.48l-.2.08a36.02 36.02 0 0 1-1.8.64 14.7 14.7 0 0 0-.64.2l-.47.14h-.03c-.15.05-.3.1-.48.13l-.65.14a69.29 69.29 0 0 0-.99.21l-.2.04a136.57 136.57 0 0 1-.56.08l-.53.08-.72.1a287 287 0 0 1-.6.07l-.7.03c-.6.03-1.2.06-1.82.06a13.32 13.32 0 0 1-1.7-.07l-.38-.03c-.36-.03-.73-.05-1.1-.1-.43-.04-.88-.1-1.34-.19-.29-.05-.58-.12-.86-.18l-.43-.1-.3-.06-.3-.06a7.68 7.68 0 0 1-.53-.13l-.29-.08c-.35-.1-.71-.2-1.07-.33a40.58 40.58 0 0 1-3.39-1.36c-.44-.2-.86-.43-1.27-.65l-.08-.05a26.3 26.3 0 0 1-3.86-2.58 27.91 27.91 0 0 1-6.77-7.99 22.15 22.15 0 0 1-1.56-3.3l-.03-.07c-.12-.29-.24-.58-.35-.89l-.31-.99-.05-.16-.36-1.24-.1-.47-.05-.23a35.4 35.4 0 0 0-.1-.46l-.05-.17a.91.91 0 0 1-.03-.15l-.08-.56c-.05-.36-.1-.74-.17-1.1a19.9 19.9 0 0 1-.19-2.3l-.02-.63a44.47 44.47 0 0 1-.04-2.87V55.11v-.09-.09a.94.94 0 0 1 .5-.92 88.25 88.25 0 0 1 1.12-.65l1.37-.79.61-.35.82-.47a735.9 735.9 0 0 0 2.6-1.51l.66-.39.98-.56.85-.49 1.2-.7 1.53-.88a253.1 253.1 0 0 1 2.2-1.26l1.42-.81.22-.13a1353.96 1353.96 0 0 0 2.78-1.62l1.3-.75 1.63-.94.89-.5.38-.22 1.3-.76a.97.97 0 0 1 1.01 0l1.3.76 1.25.73.7.4 1.2.7c.28.16.43.42.43.74a21.3 21.3 0 0 0 0 .25V76.65c0 .7.05 1.4.1 2.17 0 .2.05.42.09.64l.05.33.04.24a18.72 18.72 0 0 0 .22 1.2 13.05 13.05 0 0 0 .43 1.5c.07.23.14.44.22.64l.09.25c.11.3.21.58.34.86.12.28.26.55.41.84l.23.46a17.7 17.7 0 0 0 4.47 5.56 20 20 0 0 0 4.06 2.62 20.9 20.9 0 0 0 5.04 1.59h.05a2.72 2.72 0 0 1 .3.05l.18.03a16.2 16.2 0 0 0 .8-1.97l.27-.75.22-.8.1-.43.07-.24.1-.38.07-.4a19.16 19.16 0 0 1 .06-.34l.06-.34.12-1.27c.13-1.72.11-3.49.1-5.2l-.01-1.78V52.19c0-.5.2-.84.64-1.08.52-.28 1.05-.6 1.55-.89l.78-.45 1.11-.64 1.1-.63.93-.54 1.1-.65a133.72 133.72 0 0 1 2.06-1.16l.94-.54.86-.51 1.17-.67a278.63 278.63 0 0 0 1.68-.96l.46-.27.66-.38a553.6 553.6 0 0 0 4.31-2.49l-.06-.33h1.19l.06.24.07.04c.83.5 1.68.99 2.5 1.46l.43.25 1.46.82c.31.18.48.46.47.8V50.07m-20.22 4.75l.01 29.67v1.5a128.24 128.24 0 0 1-.03 1.92l-.17 1.57-.13.9-.02.13-.1.64-.1.38-.06.26a54.36 54.36 0 0 0-.24 1.06l-.13.48a36.68 36.68 0 0 1-.45 1.38l-.04.11.11-.02c.32-.07.65-.17.94-.25l.34-.1c.37-.1.72-.2 1.06-.33.43-.16.87-.35 1.29-.54l.25-.1a17.35 17.35 0 0 0 5.31-3.69 18.81 18.81 0 0 0 4.11-6.05l.06-.16a30.94 30.94 0 0 0 .58-1.57l.17-.65.05-.23.09-.32.18-.78c.08-.4.14-.8.18-1.18.05-.47.09-.95.12-1.49v-.9-.26-29.05l-2.78 1.6c-.49.27-.98.56-1.46.84a713.85 713.85 0 0 1-3.57 2.04l-.33.2c-.37.2-.74.41-1.1.63l-1.95 1.1-.75.44-1.42.82h-.02m-48.61 19.37a38412.24 38412.24 0 0 0 0 11.57c0 .82 0 1.6.09 2.38l.05.5c.04.36.08.7.15 1.03l.08.48.12.6.27 1.14a277.3 277.3 0 0 1 .16.57l.16.44.1.28.15.4c.1.27.19.54.3.8.15.35.33.72.5 1.07l.15.3a20.18 20.18 0 0 0 5.15 6.5 21.92 21.92 0 0 0 6.88 3.92c.36.12.72.22 1.08.32l.2.05 1.17.32c.31.07.65.13.97.18l.1.02a24.98 24.98 0 0 0 2.33.25l.47.03c.56.03 1.12 0 1.72-.04.34-.02.7-.05 1.06-.05l.32-.05.87-.14.35-.06.17-.03.38-.07a16.39 16.39 0 0 0 3.08-.83l.98-.41.6-.25c.72-.3 1.42-.7 2.02-1.05a19.37 19.37 0 0 0 3.57-2.64c.37-.35.83-.79 1.3-1.3l-.3-.06-.16-.05c-.24-.05-.49-.11-.73-.2-.35-.1-.7-.23-1.03-.35l-.32-.11a23.41 23.41 0 0 1-4.23-2 20.02 20.02 0 0 1-2.56-1.78 24.59 24.59 0 0 1-6.57-7.84l-.25-.5-.44-.9a21.54 21.54 0 0 1-1.1-2.9l-.02-.06-.23-.76-.08-.38-.05-.23-.1-.42c-.06-.25-.13-.5-.18-.77a21.91 21.91 0 0 1-.34-2.79c-.04-.64-.08-1.3-.08-1.96V52.82v-5.67l-.35.2-1.1.63-1.37.78-1.4.79-.9.52-.9.52-1.51.85-1.25.71-1.12.64-.9.52a737.4 737.4 0 0 1-3.62 2.06l-.98.56a725.42 725.42 0 0 0-2.89 1.66v16.59"/><linearGradient id="vkn0b" x1="978.46" x2="978.46" y1="115.23" y2="40" gradientUnits="userSpaceOnUse"><stop offset="0" stop-color="#ff3465"/><stop offset="1" stop-color="#ffd152"/></linearGradient></defs><g><g transform="translate(-941 -40)"><use fill="url(#vkn0b)" xlink:href="#vkn0a"/></g></g></svg>